<mxfile host="Electron" modified="2023-07-03T14:47:15.988Z" agent="Mozilla/5.0 (Windows NT 10.0; Win64; x64) AppleWebKit/537.36 (KHTML, like Gecko) draw.io/21.5.1 Chrome/112.0.5615.204 Electron/24.6.0 Safari/537.36" etag="T9pG61aamVhB4P4WmVuf" version="21.5.1" type="device">
  <diagram name="Page-1" id="nPNPaJcfHALdMDz4zUNe">
    <mxGraphModel dx="683" dy="402" grid="1" gridSize="10" guides="1" tooltips="1" connect="1" arrows="1" fold="1" page="1" pageScale="1" pageWidth="850" pageHeight="1100" math="0" shadow="0">
      <root>
        <mxCell id="0" />
        <mxCell id="1" parent="0" />
        <mxCell id="KiY_E6ATNSABtzJhrOcj-5" value="Secretaire" style="swimlane;fontStyle=0;childLayout=stackLayout;horizontal=1;startSize=26;fillColor=none;horizontalStack=0;resizeParent=1;resizeParentMax=0;resizeLast=0;collapsible=1;marginBottom=0;whiteSpace=wrap;html=1;" vertex="1" parent="1">
          <mxGeometry x="425" y="373" width="115" height="67" as="geometry" />
        </mxCell>
        <mxCell id="KiY_E6ATNSABtzJhrOcj-9" value="Patient" style="swimlane;fontStyle=0;childLayout=stackLayout;horizontal=1;startSize=26;fillColor=none;horizontalStack=0;resizeParent=1;resizeParentMax=0;resizeLast=0;collapsible=1;marginBottom=0;whiteSpace=wrap;html=1;" vertex="1" parent="1">
          <mxGeometry x="590" y="366.5" width="140" height="80" as="geometry" />
        </mxCell>
        <mxCell id="KiY_E6ATNSABtzJhrOcj-13" value="Personne" style="swimlane;fontStyle=0;childLayout=stackLayout;horizontal=1;startSize=26;fillColor=none;horizontalStack=0;resizeParent=1;resizeParentMax=0;resizeLast=0;collapsible=1;marginBottom=0;whiteSpace=wrap;html=1;" vertex="1" parent="1">
          <mxGeometry x="480" y="70" width="110" height="120" as="geometry" />
        </mxCell>
        <mxCell id="KiY_E6ATNSABtzJhrOcj-14" value="nom: string&lt;br&gt;" style="text;strokeColor=none;fillColor=none;align=left;verticalAlign=top;spacingLeft=4;spacingRight=4;overflow=hidden;rotatable=0;points=[[0,0.5],[1,0.5]];portConstraint=eastwest;whiteSpace=wrap;html=1;" vertex="1" parent="KiY_E6ATNSABtzJhrOcj-13">
          <mxGeometry y="26" width="110" height="26" as="geometry" />
        </mxCell>
        <mxCell id="KiY_E6ATNSABtzJhrOcj-15" value="prenom: string" style="text;strokeColor=none;fillColor=none;align=left;verticalAlign=top;spacingLeft=4;spacingRight=4;overflow=hidden;rotatable=0;points=[[0,0.5],[1,0.5]];portConstraint=eastwest;whiteSpace=wrap;html=1;" vertex="1" parent="KiY_E6ATNSABtzJhrOcj-13">
          <mxGeometry y="52" width="110" height="26" as="geometry" />
        </mxCell>
        <mxCell id="KiY_E6ATNSABtzJhrOcj-22" value="dateNaissance: DateTime" style="text;strokeColor=none;fillColor=none;align=left;verticalAlign=top;spacingLeft=4;spacingRight=4;overflow=hidden;rotatable=0;points=[[0,0.5],[1,0.5]];portConstraint=eastwest;whiteSpace=wrap;html=1;" vertex="1" parent="KiY_E6ATNSABtzJhrOcj-13">
          <mxGeometry y="78" width="110" height="42" as="geometry" />
        </mxCell>
        <mxCell id="KiY_E6ATNSABtzJhrOcj-18" value="" style="endArrow=block;startArrow=none;endFill=0;startFill=0;endSize=8;html=1;verticalAlign=bottom;dashed=1;labelBackgroundColor=none;rounded=0;" edge="1" parent="1" source="KiY_E6ATNSABtzJhrOcj-28" target="KiY_E6ATNSABtzJhrOcj-23">
          <mxGeometry width="160" relative="1" as="geometry">
            <mxPoint x="362.2222222222222" y="360" as="sourcePoint" />
            <mxPoint x="700" y="270" as="targetPoint" />
          </mxGeometry>
        </mxCell>
        <mxCell id="KiY_E6ATNSABtzJhrOcj-19" value="" style="endArrow=block;startArrow=none;endFill=0;startFill=0;endSize=8;html=1;verticalAlign=bottom;dashed=1;labelBackgroundColor=none;rounded=0;" edge="1" parent="1" source="KiY_E6ATNSABtzJhrOcj-5" target="KiY_E6ATNSABtzJhrOcj-23">
          <mxGeometry width="160" relative="1" as="geometry">
            <mxPoint x="381" y="270" as="sourcePoint" />
            <mxPoint x="519" y="154" as="targetPoint" />
          </mxGeometry>
        </mxCell>
        <mxCell id="KiY_E6ATNSABtzJhrOcj-20" value="" style="endArrow=block;startArrow=none;endFill=0;startFill=0;endSize=8;html=1;verticalAlign=bottom;dashed=1;labelBackgroundColor=none;rounded=0;" edge="1" parent="1" source="KiY_E6ATNSABtzJhrOcj-9" target="KiY_E6ATNSABtzJhrOcj-13">
          <mxGeometry width="160" relative="1" as="geometry">
            <mxPoint x="519" y="320" as="sourcePoint" />
            <mxPoint x="566" y="154" as="targetPoint" />
          </mxGeometry>
        </mxCell>
        <mxCell id="KiY_E6ATNSABtzJhrOcj-23" value="Utilisateur" style="swimlane;fontStyle=0;childLayout=stackLayout;horizontal=1;startSize=26;fillColor=none;horizontalStack=0;resizeParent=1;resizeParentMax=0;resizeLast=0;collapsible=1;marginBottom=0;whiteSpace=wrap;html=1;" vertex="1" parent="1">
          <mxGeometry x="350" y="230" width="110" height="78" as="geometry" />
        </mxCell>
        <mxCell id="KiY_E6ATNSABtzJhrOcj-24" value="login: string" style="text;strokeColor=none;fillColor=none;align=left;verticalAlign=top;spacingLeft=4;spacingRight=4;overflow=hidden;rotatable=0;points=[[0,0.5],[1,0.5]];portConstraint=eastwest;whiteSpace=wrap;html=1;" vertex="1" parent="KiY_E6ATNSABtzJhrOcj-23">
          <mxGeometry y="26" width="110" height="26" as="geometry" />
        </mxCell>
        <mxCell id="KiY_E6ATNSABtzJhrOcj-25" value="password: string" style="text;strokeColor=none;fillColor=none;align=left;verticalAlign=top;spacingLeft=4;spacingRight=4;overflow=hidden;rotatable=0;points=[[0,0.5],[1,0.5]];portConstraint=eastwest;whiteSpace=wrap;html=1;" vertex="1" parent="KiY_E6ATNSABtzJhrOcj-23">
          <mxGeometry y="52" width="110" height="26" as="geometry" />
        </mxCell>
        <mxCell id="KiY_E6ATNSABtzJhrOcj-27" value="" style="endArrow=block;startArrow=none;endFill=0;startFill=0;endSize=8;html=1;verticalAlign=bottom;dashed=1;labelBackgroundColor=none;rounded=0;" edge="1" parent="1" source="KiY_E6ATNSABtzJhrOcj-23" target="KiY_E6ATNSABtzJhrOcj-13">
          <mxGeometry width="160" relative="1" as="geometry">
            <mxPoint x="702" y="400" as="sourcePoint" />
            <mxPoint x="658" y="190" as="targetPoint" />
          </mxGeometry>
        </mxCell>
        <mxCell id="KiY_E6ATNSABtzJhrOcj-28" value="Medecin" style="swimlane;fontStyle=0;childLayout=stackLayout;horizontal=1;startSize=26;fillColor=none;horizontalStack=0;resizeParent=1;resizeParentMax=0;resizeLast=0;collapsible=1;marginBottom=0;whiteSpace=wrap;html=1;" vertex="1" parent="1">
          <mxGeometry x="270" y="373" width="110" height="78" as="geometry" />
        </mxCell>
        <mxCell id="KiY_E6ATNSABtzJhrOcj-29" value="INAMI: string" style="text;strokeColor=none;fillColor=none;align=left;verticalAlign=top;spacingLeft=4;spacingRight=4;overflow=hidden;rotatable=0;points=[[0,0.5],[1,0.5]];portConstraint=eastwest;whiteSpace=wrap;html=1;" vertex="1" parent="KiY_E6ATNSABtzJhrOcj-28">
          <mxGeometry y="26" width="110" height="26" as="geometry" />
        </mxCell>
        <mxCell id="KiY_E6ATNSABtzJhrOcj-30" value="specialite: string" style="text;strokeColor=none;fillColor=none;align=left;verticalAlign=top;spacingLeft=4;spacingRight=4;overflow=hidden;rotatable=0;points=[[0,0.5],[1,0.5]];portConstraint=eastwest;whiteSpace=wrap;html=1;" vertex="1" parent="KiY_E6ATNSABtzJhrOcj-28">
          <mxGeometry y="52" width="110" height="26" as="geometry" />
        </mxCell>
        <mxCell id="KiY_E6ATNSABtzJhrOcj-55" style="edgeStyle=orthogonalEdgeStyle;rounded=0;orthogonalLoop=1;jettySize=auto;html=1;endArrow=none;endFill=0;curved=1;" edge="1" parent="1" source="KiY_E6ATNSABtzJhrOcj-32" target="KiY_E6ATNSABtzJhrOcj-45">
          <mxGeometry relative="1" as="geometry">
            <Array as="points">
              <mxPoint x="238" y="920" />
            </Array>
          </mxGeometry>
        </mxCell>
        <mxCell id="KiY_E6ATNSABtzJhrOcj-56" value="assiste" style="edgeLabel;html=1;align=center;verticalAlign=middle;resizable=0;points=[];" vertex="1" connectable="0" parent="KiY_E6ATNSABtzJhrOcj-55">
          <mxGeometry x="-0.3728" y="13" relative="1" as="geometry">
            <mxPoint as="offset" />
          </mxGeometry>
        </mxCell>
        <mxCell id="KiY_E6ATNSABtzJhrOcj-57" value="1..*" style="edgeLabel;html=1;align=center;verticalAlign=middle;resizable=0;points=[];" vertex="1" connectable="0" parent="KiY_E6ATNSABtzJhrOcj-55">
          <mxGeometry x="0.8502" y="3" relative="1" as="geometry">
            <mxPoint as="offset" />
          </mxGeometry>
        </mxCell>
        <mxCell id="KiY_E6ATNSABtzJhrOcj-58" value="1" style="edgeLabel;html=1;align=center;verticalAlign=middle;resizable=0;points=[];" vertex="1" connectable="0" parent="KiY_E6ATNSABtzJhrOcj-55">
          <mxGeometry x="-0.7229" y="3" relative="1" as="geometry">
            <mxPoint as="offset" />
          </mxGeometry>
        </mxCell>
        <mxCell id="KiY_E6ATNSABtzJhrOcj-32" value="Secretaire" style="swimlane;fontStyle=0;childLayout=stackLayout;horizontal=1;startSize=26;fillColor=none;horizontalStack=0;resizeParent=1;resizeParentMax=0;resizeLast=0;collapsible=1;marginBottom=0;whiteSpace=wrap;html=1;" vertex="1" parent="1">
          <mxGeometry x="180" y="740" width="115" height="67" as="geometry" />
        </mxCell>
        <mxCell id="KiY_E6ATNSABtzJhrOcj-33" value="Patient" style="swimlane;fontStyle=0;childLayout=stackLayout;horizontal=1;startSize=26;fillColor=none;horizontalStack=0;resizeParent=1;resizeParentMax=0;resizeLast=0;collapsible=1;marginBottom=0;whiteSpace=wrap;html=1;" vertex="1" parent="1">
          <mxGeometry x="680" y="880" width="140" height="80" as="geometry" />
        </mxCell>
        <mxCell id="KiY_E6ATNSABtzJhrOcj-34" value="Personne" style="swimlane;fontStyle=0;childLayout=stackLayout;horizontal=1;startSize=26;fillColor=none;horizontalStack=0;resizeParent=1;resizeParentMax=0;resizeLast=0;collapsible=1;marginBottom=0;whiteSpace=wrap;html=1;" vertex="1" parent="1">
          <mxGeometry x="415" y="590" width="110" height="120" as="geometry" />
        </mxCell>
        <mxCell id="KiY_E6ATNSABtzJhrOcj-35" value="nom: string&lt;br&gt;" style="text;strokeColor=none;fillColor=none;align=left;verticalAlign=top;spacingLeft=4;spacingRight=4;overflow=hidden;rotatable=0;points=[[0,0.5],[1,0.5]];portConstraint=eastwest;whiteSpace=wrap;html=1;" vertex="1" parent="KiY_E6ATNSABtzJhrOcj-34">
          <mxGeometry y="26" width="110" height="26" as="geometry" />
        </mxCell>
        <mxCell id="KiY_E6ATNSABtzJhrOcj-36" value="prenom: string" style="text;strokeColor=none;fillColor=none;align=left;verticalAlign=top;spacingLeft=4;spacingRight=4;overflow=hidden;rotatable=0;points=[[0,0.5],[1,0.5]];portConstraint=eastwest;whiteSpace=wrap;html=1;" vertex="1" parent="KiY_E6ATNSABtzJhrOcj-34">
          <mxGeometry y="52" width="110" height="26" as="geometry" />
        </mxCell>
        <mxCell id="KiY_E6ATNSABtzJhrOcj-37" value="dateNaissance: DateTime" style="text;strokeColor=none;fillColor=none;align=left;verticalAlign=top;spacingLeft=4;spacingRight=4;overflow=hidden;rotatable=0;points=[[0,0.5],[1,0.5]];portConstraint=eastwest;whiteSpace=wrap;html=1;" vertex="1" parent="KiY_E6ATNSABtzJhrOcj-34">
          <mxGeometry y="78" width="110" height="42" as="geometry" />
        </mxCell>
        <mxCell id="KiY_E6ATNSABtzJhrOcj-40" value="" style="endArrow=block;startArrow=none;endFill=0;startFill=0;endSize=8;html=1;verticalAlign=bottom;dashed=1;labelBackgroundColor=none;rounded=0;" edge="1" parent="1" source="KiY_E6ATNSABtzJhrOcj-33" target="KiY_E6ATNSABtzJhrOcj-34">
          <mxGeometry width="160" relative="1" as="geometry">
            <mxPoint x="509" y="780" as="sourcePoint" />
            <mxPoint x="556" y="614" as="targetPoint" />
          </mxGeometry>
        </mxCell>
        <mxCell id="KiY_E6ATNSABtzJhrOcj-41" value="Compte" style="swimlane;fontStyle=0;childLayout=stackLayout;horizontal=1;startSize=26;fillColor=none;horizontalStack=0;resizeParent=1;resizeParentMax=0;resizeLast=0;collapsible=1;marginBottom=0;whiteSpace=wrap;html=1;" vertex="1" parent="1">
          <mxGeometry x="700" y="590" width="110" height="78" as="geometry" />
        </mxCell>
        <mxCell id="KiY_E6ATNSABtzJhrOcj-42" value="login: string" style="text;strokeColor=none;fillColor=none;align=left;verticalAlign=top;spacingLeft=4;spacingRight=4;overflow=hidden;rotatable=0;points=[[0,0.5],[1,0.5]];portConstraint=eastwest;whiteSpace=wrap;html=1;" vertex="1" parent="KiY_E6ATNSABtzJhrOcj-41">
          <mxGeometry y="26" width="110" height="26" as="geometry" />
        </mxCell>
        <mxCell id="KiY_E6ATNSABtzJhrOcj-43" value="password: string" style="text;strokeColor=none;fillColor=none;align=left;verticalAlign=top;spacingLeft=4;spacingRight=4;overflow=hidden;rotatable=0;points=[[0,0.5],[1,0.5]];portConstraint=eastwest;whiteSpace=wrap;html=1;" vertex="1" parent="KiY_E6ATNSABtzJhrOcj-41">
          <mxGeometry y="52" width="110" height="26" as="geometry" />
        </mxCell>
        <mxCell id="KiY_E6ATNSABtzJhrOcj-45" value="Medecin" style="swimlane;fontStyle=0;childLayout=stackLayout;horizontal=1;startSize=26;fillColor=none;horizontalStack=0;resizeParent=1;resizeParentMax=0;resizeLast=0;collapsible=1;marginBottom=0;whiteSpace=wrap;html=1;" vertex="1" parent="1">
          <mxGeometry x="340" y="880" width="110" height="78" as="geometry" />
        </mxCell>
        <mxCell id="KiY_E6ATNSABtzJhrOcj-46" value="INAMI: string" style="text;strokeColor=none;fillColor=none;align=left;verticalAlign=top;spacingLeft=4;spacingRight=4;overflow=hidden;rotatable=0;points=[[0,0.5],[1,0.5]];portConstraint=eastwest;whiteSpace=wrap;html=1;" vertex="1" parent="KiY_E6ATNSABtzJhrOcj-45">
          <mxGeometry y="26" width="110" height="26" as="geometry" />
        </mxCell>
        <mxCell id="KiY_E6ATNSABtzJhrOcj-47" value="specialite: string" style="text;strokeColor=none;fillColor=none;align=left;verticalAlign=top;spacingLeft=4;spacingRight=4;overflow=hidden;rotatable=0;points=[[0,0.5],[1,0.5]];portConstraint=eastwest;whiteSpace=wrap;html=1;" vertex="1" parent="KiY_E6ATNSABtzJhrOcj-45">
          <mxGeometry y="52" width="110" height="26" as="geometry" />
        </mxCell>
        <mxCell id="KiY_E6ATNSABtzJhrOcj-48" style="edgeStyle=orthogonalEdgeStyle;rounded=0;orthogonalLoop=1;jettySize=auto;html=1;endArrow=none;endFill=0;" edge="1" parent="1">
          <mxGeometry relative="1" as="geometry">
            <mxPoint x="526" y="629" as="sourcePoint" />
            <mxPoint x="701" y="629" as="targetPoint" />
          </mxGeometry>
        </mxCell>
        <mxCell id="KiY_E6ATNSABtzJhrOcj-49" value="possede" style="edgeLabel;html=1;align=center;verticalAlign=middle;resizable=0;points=[];" vertex="1" connectable="0" parent="KiY_E6ATNSABtzJhrOcj-48">
          <mxGeometry x="-0.0792" y="-2" relative="1" as="geometry">
            <mxPoint as="offset" />
          </mxGeometry>
        </mxCell>
        <mxCell id="KiY_E6ATNSABtzJhrOcj-50" value="0..1" style="edgeLabel;html=1;align=center;verticalAlign=middle;resizable=0;points=[];" vertex="1" connectable="0" parent="KiY_E6ATNSABtzJhrOcj-48">
          <mxGeometry x="0.7241" y="2" relative="1" as="geometry">
            <mxPoint as="offset" />
          </mxGeometry>
        </mxCell>
        <mxCell id="KiY_E6ATNSABtzJhrOcj-51" value="1" style="edgeLabel;html=1;align=center;verticalAlign=middle;resizable=0;points=[];" vertex="1" connectable="0" parent="KiY_E6ATNSABtzJhrOcj-48">
          <mxGeometry x="-0.8694" y="1" relative="1" as="geometry">
            <mxPoint as="offset" />
          </mxGeometry>
        </mxCell>
        <mxCell id="KiY_E6ATNSABtzJhrOcj-52" value="" style="endArrow=block;startArrow=none;endFill=0;startFill=0;endSize=8;html=1;verticalAlign=bottom;dashed=1;labelBackgroundColor=none;rounded=0;" edge="1" parent="1" source="KiY_E6ATNSABtzJhrOcj-45" target="KiY_E6ATNSABtzJhrOcj-34">
          <mxGeometry width="160" relative="1" as="geometry">
            <mxPoint x="627" y="837" as="sourcePoint" />
            <mxPoint x="530" y="720" as="targetPoint" />
          </mxGeometry>
        </mxCell>
        <mxCell id="KiY_E6ATNSABtzJhrOcj-53" value="" style="endArrow=block;startArrow=none;endFill=0;startFill=0;endSize=8;html=1;verticalAlign=bottom;dashed=1;labelBackgroundColor=none;rounded=0;" edge="1" parent="1" source="KiY_E6ATNSABtzJhrOcj-32" target="KiY_E6ATNSABtzJhrOcj-34">
          <mxGeometry width="160" relative="1" as="geometry">
            <mxPoint x="352" y="843" as="sourcePoint" />
            <mxPoint x="438" y="720" as="targetPoint" />
          </mxGeometry>
        </mxCell>
        <mxCell id="KiY_E6ATNSABtzJhrOcj-59" style="edgeStyle=orthogonalEdgeStyle;rounded=0;orthogonalLoop=1;jettySize=auto;html=1;endArrow=none;endFill=0;curved=1;" edge="1" parent="1" source="KiY_E6ATNSABtzJhrOcj-45" target="KiY_E6ATNSABtzJhrOcj-33">
          <mxGeometry relative="1" as="geometry">
            <mxPoint x="248" y="817" as="sourcePoint" />
            <mxPoint x="350" y="930" as="targetPoint" />
            <Array as="points">
              <mxPoint x="610" y="930" />
              <mxPoint x="610" y="930" />
            </Array>
          </mxGeometry>
        </mxCell>
        <mxCell id="KiY_E6ATNSABtzJhrOcj-60" value="prend en charge" style="edgeLabel;html=1;align=center;verticalAlign=middle;resizable=0;points=[];" vertex="1" connectable="0" parent="KiY_E6ATNSABtzJhrOcj-59">
          <mxGeometry x="-0.3728" y="13" relative="1" as="geometry">
            <mxPoint as="offset" />
          </mxGeometry>
        </mxCell>
        <mxCell id="KiY_E6ATNSABtzJhrOcj-61" value="1..*" style="edgeLabel;html=1;align=center;verticalAlign=middle;resizable=0;points=[];" vertex="1" connectable="0" parent="KiY_E6ATNSABtzJhrOcj-59">
          <mxGeometry x="0.8502" y="3" relative="1" as="geometry">
            <mxPoint as="offset" />
          </mxGeometry>
        </mxCell>
        <mxCell id="KiY_E6ATNSABtzJhrOcj-62" value="1" style="edgeLabel;html=1;align=center;verticalAlign=middle;resizable=0;points=[];" vertex="1" connectable="0" parent="KiY_E6ATNSABtzJhrOcj-59">
          <mxGeometry x="-0.7229" y="3" relative="1" as="geometry">
            <mxPoint x="-22" as="offset" />
          </mxGeometry>
        </mxCell>
        <mxCell id="KiY_E6ATNSABtzJhrOcj-63" value="Consultation" style="swimlane;fontStyle=0;childLayout=stackLayout;horizontal=1;startSize=26;fillColor=none;horizontalStack=0;resizeParent=1;resizeParentMax=0;resizeLast=0;collapsible=1;marginBottom=0;whiteSpace=wrap;html=1;" vertex="1" parent="1">
          <mxGeometry x="470" y="1010" width="180" height="104" as="geometry" />
        </mxCell>
        <mxCell id="KiY_E6ATNSABtzJhrOcj-64" value="dateConsultation: DateTime" style="text;strokeColor=none;fillColor=none;align=left;verticalAlign=top;spacingLeft=4;spacingRight=4;overflow=hidden;rotatable=0;points=[[0,0.5],[1,0.5]];portConstraint=eastwest;whiteSpace=wrap;html=1;" vertex="1" parent="KiY_E6ATNSABtzJhrOcj-63">
          <mxGeometry y="26" width="180" height="26" as="geometry" />
        </mxCell>
        <mxCell id="KiY_E6ATNSABtzJhrOcj-66" value="duree: int" style="text;strokeColor=none;fillColor=none;align=left;verticalAlign=top;spacingLeft=4;spacingRight=4;overflow=hidden;rotatable=0;points=[[0,0.5],[1,0.5]];portConstraint=eastwest;whiteSpace=wrap;html=1;" vertex="1" parent="KiY_E6ATNSABtzJhrOcj-63">
          <mxGeometry y="52" width="180" height="26" as="geometry" />
        </mxCell>
        <mxCell id="KiY_E6ATNSABtzJhrOcj-65" value="objet: string" style="text;strokeColor=none;fillColor=none;align=left;verticalAlign=top;spacingLeft=4;spacingRight=4;overflow=hidden;rotatable=0;points=[[0,0.5],[1,0.5]];portConstraint=eastwest;whiteSpace=wrap;html=1;" vertex="1" parent="KiY_E6ATNSABtzJhrOcj-63">
          <mxGeometry y="78" width="180" height="26" as="geometry" />
        </mxCell>
        <mxCell id="KiY_E6ATNSABtzJhrOcj-67" style="edgeStyle=orthogonalEdgeStyle;rounded=0;orthogonalLoop=1;jettySize=auto;html=1;endArrow=none;endFill=0;curved=1;" edge="1" parent="1" source="KiY_E6ATNSABtzJhrOcj-45" target="KiY_E6ATNSABtzJhrOcj-63">
          <mxGeometry relative="1" as="geometry">
            <mxPoint x="460" y="940" as="sourcePoint" />
            <mxPoint x="690" y="940" as="targetPoint" />
            <Array as="points">
              <mxPoint x="370" y="1102" />
            </Array>
          </mxGeometry>
        </mxCell>
        <mxCell id="KiY_E6ATNSABtzJhrOcj-68" value="réalise" style="edgeLabel;html=1;align=center;verticalAlign=middle;resizable=0;points=[];" vertex="1" connectable="0" parent="KiY_E6ATNSABtzJhrOcj-67">
          <mxGeometry x="-0.3728" y="13" relative="1" as="geometry">
            <mxPoint as="offset" />
          </mxGeometry>
        </mxCell>
        <mxCell id="KiY_E6ATNSABtzJhrOcj-69" value="1..*" style="edgeLabel;html=1;align=center;verticalAlign=middle;resizable=0;points=[];" vertex="1" connectable="0" parent="KiY_E6ATNSABtzJhrOcj-67">
          <mxGeometry x="0.8502" y="3" relative="1" as="geometry">
            <mxPoint as="offset" />
          </mxGeometry>
        </mxCell>
        <mxCell id="KiY_E6ATNSABtzJhrOcj-70" value="1" style="edgeLabel;html=1;align=center;verticalAlign=middle;resizable=0;points=[];" vertex="1" connectable="0" parent="KiY_E6ATNSABtzJhrOcj-67">
          <mxGeometry x="-0.7229" y="3" relative="1" as="geometry">
            <mxPoint x="-22" as="offset" />
          </mxGeometry>
        </mxCell>
        <mxCell id="KiY_E6ATNSABtzJhrOcj-71" style="edgeStyle=orthogonalEdgeStyle;rounded=0;orthogonalLoop=1;jettySize=auto;html=1;endArrow=none;endFill=0;curved=1;" edge="1" parent="1" source="KiY_E6ATNSABtzJhrOcj-63" target="KiY_E6ATNSABtzJhrOcj-33">
          <mxGeometry relative="1" as="geometry">
            <mxPoint x="370" y="1150" as="sourcePoint" />
            <mxPoint x="470" y="1112" as="targetPoint" />
            <Array as="points">
              <mxPoint x="760" y="1112" />
            </Array>
          </mxGeometry>
        </mxCell>
        <mxCell id="KiY_E6ATNSABtzJhrOcj-72" value="concerne" style="edgeLabel;html=1;align=center;verticalAlign=middle;resizable=0;points=[];" vertex="1" connectable="0" parent="KiY_E6ATNSABtzJhrOcj-71">
          <mxGeometry x="-0.3728" y="13" relative="1" as="geometry">
            <mxPoint as="offset" />
          </mxGeometry>
        </mxCell>
        <mxCell id="KiY_E6ATNSABtzJhrOcj-73" value="1" style="edgeLabel;html=1;align=center;verticalAlign=middle;resizable=0;points=[];" vertex="1" connectable="0" parent="KiY_E6ATNSABtzJhrOcj-71">
          <mxGeometry x="0.8502" y="3" relative="1" as="geometry">
            <mxPoint as="offset" />
          </mxGeometry>
        </mxCell>
        <mxCell id="KiY_E6ATNSABtzJhrOcj-74" value="1..*" style="edgeLabel;html=1;align=center;verticalAlign=middle;resizable=0;points=[];" vertex="1" connectable="0" parent="KiY_E6ATNSABtzJhrOcj-71">
          <mxGeometry x="-0.7229" y="3" relative="1" as="geometry">
            <mxPoint x="-22" as="offset" />
          </mxGeometry>
        </mxCell>
        <mxCell id="KiY_E6ATNSABtzJhrOcj-75" value="Dossier" style="swimlane;fontStyle=0;childLayout=stackLayout;horizontal=1;startSize=26;fillColor=none;horizontalStack=0;resizeParent=1;resizeParentMax=0;resizeLast=0;collapsible=1;marginBottom=0;whiteSpace=wrap;html=1;" vertex="1" parent="1">
          <mxGeometry x="640" y="1280" width="160" height="78" as="geometry" />
        </mxCell>
        <mxCell id="KiY_E6ATNSABtzJhrOcj-76" value="numero:int" style="text;strokeColor=none;fillColor=none;align=left;verticalAlign=top;spacingLeft=4;spacingRight=4;overflow=hidden;rotatable=0;points=[[0,0.5],[1,0.5]];portConstraint=eastwest;whiteSpace=wrap;html=1;" vertex="1" parent="KiY_E6ATNSABtzJhrOcj-75">
          <mxGeometry y="26" width="160" height="26" as="geometry" />
        </mxCell>
        <mxCell id="KiY_E6ATNSABtzJhrOcj-77" value="dateCreation: DateTime" style="text;strokeColor=none;fillColor=none;align=left;verticalAlign=top;spacingLeft=4;spacingRight=4;overflow=hidden;rotatable=0;points=[[0,0.5],[1,0.5]];portConstraint=eastwest;whiteSpace=wrap;html=1;" vertex="1" parent="KiY_E6ATNSABtzJhrOcj-75">
          <mxGeometry y="52" width="160" height="26" as="geometry" />
        </mxCell>
        <mxCell id="KiY_E6ATNSABtzJhrOcj-90" style="rounded=0;orthogonalLoop=1;jettySize=auto;html=1;endArrow=none;endFill=0;" edge="1" parent="1" source="KiY_E6ATNSABtzJhrOcj-63" target="KiY_E6ATNSABtzJhrOcj-75">
          <mxGeometry relative="1" as="geometry">
            <mxPoint x="770" y="970" as="sourcePoint" />
            <mxPoint x="660" y="1122" as="targetPoint" />
          </mxGeometry>
        </mxCell>
        <mxCell id="KiY_E6ATNSABtzJhrOcj-91" value="concerne" style="edgeLabel;html=1;align=center;verticalAlign=middle;resizable=0;points=[];" vertex="1" connectable="0" parent="KiY_E6ATNSABtzJhrOcj-90">
          <mxGeometry x="-0.3728" y="13" relative="1" as="geometry">
            <mxPoint x="-23" y="16" as="offset" />
          </mxGeometry>
        </mxCell>
        <mxCell id="KiY_E6ATNSABtzJhrOcj-92" value="1" style="edgeLabel;html=1;align=center;verticalAlign=middle;resizable=0;points=[];" vertex="1" connectable="0" parent="KiY_E6ATNSABtzJhrOcj-90">
          <mxGeometry x="0.8502" y="3" relative="1" as="geometry">
            <mxPoint x="-13" y="-13" as="offset" />
          </mxGeometry>
        </mxCell>
        <mxCell id="KiY_E6ATNSABtzJhrOcj-93" value="1..*" style="edgeLabel;html=1;align=center;verticalAlign=middle;resizable=0;points=[];" vertex="1" connectable="0" parent="KiY_E6ATNSABtzJhrOcj-90">
          <mxGeometry x="-0.7229" y="3" relative="1" as="geometry">
            <mxPoint x="7" y="3" as="offset" />
          </mxGeometry>
        </mxCell>
        <mxCell id="KiY_E6ATNSABtzJhrOcj-94" style="rounded=0;orthogonalLoop=1;jettySize=auto;html=1;endArrow=none;endFill=0;" edge="1" parent="1" target="KiY_E6ATNSABtzJhrOcj-75">
          <mxGeometry relative="1" as="geometry">
            <mxPoint x="790" y="960" as="sourcePoint" />
            <mxPoint x="570" y="1220" as="targetPoint" />
            <Array as="points">
              <mxPoint x="760" y="1200" />
              <mxPoint x="750" y="1249" />
            </Array>
          </mxGeometry>
        </mxCell>
        <mxCell id="KiY_E6ATNSABtzJhrOcj-95" value="possede" style="edgeLabel;html=1;align=center;verticalAlign=middle;resizable=0;points=[];" vertex="1" connectable="0" parent="KiY_E6ATNSABtzJhrOcj-94">
          <mxGeometry x="-0.3728" y="13" relative="1" as="geometry">
            <mxPoint x="-23" y="52" as="offset" />
          </mxGeometry>
        </mxCell>
        <mxCell id="KiY_E6ATNSABtzJhrOcj-96" value="1" style="edgeLabel;html=1;align=center;verticalAlign=middle;resizable=0;points=[];" vertex="1" connectable="0" parent="KiY_E6ATNSABtzJhrOcj-94">
          <mxGeometry x="0.8502" y="3" relative="1" as="geometry">
            <mxPoint x="-13" y="-13" as="offset" />
          </mxGeometry>
        </mxCell>
        <mxCell id="KiY_E6ATNSABtzJhrOcj-97" value="1" style="edgeLabel;html=1;align=center;verticalAlign=middle;resizable=0;points=[];" vertex="1" connectable="0" parent="KiY_E6ATNSABtzJhrOcj-94">
          <mxGeometry x="-0.7229" y="3" relative="1" as="geometry">
            <mxPoint x="7" y="3" as="offset" />
          </mxGeometry>
        </mxCell>
        <mxCell id="KiY_E6ATNSABtzJhrOcj-99" value="Pathologie" style="swimlane;fontStyle=0;childLayout=stackLayout;horizontal=1;startSize=26;fillColor=none;horizontalStack=0;resizeParent=1;resizeParentMax=0;resizeLast=0;collapsible=1;marginBottom=0;whiteSpace=wrap;html=1;" vertex="1" parent="1">
          <mxGeometry x="630" y="1450" width="160" height="104" as="geometry" />
        </mxCell>
        <mxCell id="KiY_E6ATNSABtzJhrOcj-100" value="nom: string" style="text;strokeColor=none;fillColor=none;align=left;verticalAlign=top;spacingLeft=4;spacingRight=4;overflow=hidden;rotatable=0;points=[[0,0.5],[1,0.5]];portConstraint=eastwest;whiteSpace=wrap;html=1;" vertex="1" parent="KiY_E6ATNSABtzJhrOcj-99">
          <mxGeometry y="26" width="160" height="26" as="geometry" />
        </mxCell>
        <mxCell id="KiY_E6ATNSABtzJhrOcj-101" value="dateDebut: DateTime" style="text;strokeColor=none;fillColor=none;align=left;verticalAlign=top;spacingLeft=4;spacingRight=4;overflow=hidden;rotatable=0;points=[[0,0.5],[1,0.5]];portConstraint=eastwest;whiteSpace=wrap;html=1;" vertex="1" parent="KiY_E6ATNSABtzJhrOcj-99">
          <mxGeometry y="52" width="160" height="26" as="geometry" />
        </mxCell>
        <mxCell id="KiY_E6ATNSABtzJhrOcj-102" value="dateFin: DateTime" style="text;strokeColor=none;fillColor=none;align=left;verticalAlign=top;spacingLeft=4;spacingRight=4;overflow=hidden;rotatable=0;points=[[0,0.5],[1,0.5]];portConstraint=eastwest;whiteSpace=wrap;html=1;" vertex="1" parent="KiY_E6ATNSABtzJhrOcj-99">
          <mxGeometry y="78" width="160" height="26" as="geometry" />
        </mxCell>
        <mxCell id="KiY_E6ATNSABtzJhrOcj-103" style="rounded=0;orthogonalLoop=1;jettySize=auto;html=1;endArrow=none;endFill=0;" edge="1" parent="1" source="KiY_E6ATNSABtzJhrOcj-75" target="KiY_E6ATNSABtzJhrOcj-99">
          <mxGeometry relative="1" as="geometry">
            <mxPoint x="570" y="1124" as="sourcePoint" />
            <mxPoint x="570" y="1220" as="targetPoint" />
          </mxGeometry>
        </mxCell>
        <mxCell id="KiY_E6ATNSABtzJhrOcj-104" value="contient" style="edgeLabel;html=1;align=center;verticalAlign=middle;resizable=0;points=[];" vertex="1" connectable="0" parent="KiY_E6ATNSABtzJhrOcj-103">
          <mxGeometry x="-0.3728" y="13" relative="1" as="geometry">
            <mxPoint x="-23" y="16" as="offset" />
          </mxGeometry>
        </mxCell>
        <mxCell id="KiY_E6ATNSABtzJhrOcj-105" value="0..*" style="edgeLabel;html=1;align=center;verticalAlign=middle;resizable=0;points=[];" vertex="1" connectable="0" parent="KiY_E6ATNSABtzJhrOcj-103">
          <mxGeometry x="0.8502" y="3" relative="1" as="geometry">
            <mxPoint x="-13" y="-13" as="offset" />
          </mxGeometry>
        </mxCell>
        <mxCell id="KiY_E6ATNSABtzJhrOcj-106" value="1" style="edgeLabel;html=1;align=center;verticalAlign=middle;resizable=0;points=[];" vertex="1" connectable="0" parent="KiY_E6ATNSABtzJhrOcj-103">
          <mxGeometry x="-0.7229" y="3" relative="1" as="geometry">
            <mxPoint x="7" y="3" as="offset" />
          </mxGeometry>
        </mxCell>
        <mxCell id="KiY_E6ATNSABtzJhrOcj-107" value="PrescriptionMedicament" style="swimlane;fontStyle=0;childLayout=stackLayout;horizontal=1;startSize=26;fillColor=none;horizontalStack=0;resizeParent=1;resizeParentMax=0;resizeLast=0;collapsible=1;marginBottom=0;whiteSpace=wrap;html=1;" vertex="1" parent="1">
          <mxGeometry x="140" y="1244" width="160" height="80" as="geometry" />
        </mxCell>
        <mxCell id="KiY_E6ATNSABtzJhrOcj-108" value="posologie: string" style="text;strokeColor=none;fillColor=none;align=left;verticalAlign=top;spacingLeft=4;spacingRight=4;overflow=hidden;rotatable=0;points=[[0,0.5],[1,0.5]];portConstraint=eastwest;whiteSpace=wrap;html=1;" vertex="1" parent="KiY_E6ATNSABtzJhrOcj-107">
          <mxGeometry y="26" width="160" height="54" as="geometry" />
        </mxCell>
        <mxCell id="KiY_E6ATNSABtzJhrOcj-110" style="rounded=0;orthogonalLoop=1;jettySize=auto;html=1;endArrow=none;endFill=0;" edge="1" parent="1" source="KiY_E6ATNSABtzJhrOcj-65" target="KiY_E6ATNSABtzJhrOcj-107">
          <mxGeometry relative="1" as="geometry">
            <mxPoint x="525" y="1298" as="sourcePoint" />
            <mxPoint x="430" y="1380" as="targetPoint" />
          </mxGeometry>
        </mxCell>
        <mxCell id="KiY_E6ATNSABtzJhrOcj-112" value="0..*" style="edgeLabel;html=1;align=center;verticalAlign=middle;resizable=0;points=[];" vertex="1" connectable="0" parent="KiY_E6ATNSABtzJhrOcj-110">
          <mxGeometry x="0.8502" y="3" relative="1" as="geometry">
            <mxPoint x="4" y="-26" as="offset" />
          </mxGeometry>
        </mxCell>
        <mxCell id="KiY_E6ATNSABtzJhrOcj-113" value="1" style="edgeLabel;html=1;align=center;verticalAlign=middle;resizable=0;points=[];" vertex="1" connectable="0" parent="KiY_E6ATNSABtzJhrOcj-110">
          <mxGeometry x="-0.7229" y="3" relative="1" as="geometry">
            <mxPoint x="7" y="3" as="offset" />
          </mxGeometry>
        </mxCell>
        <mxCell id="KiY_E6ATNSABtzJhrOcj-116" value="comporte" style="edgeLabel;html=1;align=center;verticalAlign=middle;resizable=0;points=[];" vertex="1" connectable="0" parent="KiY_E6ATNSABtzJhrOcj-110">
          <mxGeometry x="0.0197" y="1" relative="1" as="geometry">
            <mxPoint as="offset" />
          </mxGeometry>
        </mxCell>
        <mxCell id="KiY_E6ATNSABtzJhrOcj-119" style="rounded=0;orthogonalLoop=1;jettySize=auto;html=1;endArrow=none;endFill=0;" edge="1" parent="1" source="KiY_E6ATNSABtzJhrOcj-107" target="KiY_E6ATNSABtzJhrOcj-123">
          <mxGeometry relative="1" as="geometry">
            <mxPoint x="542" y="1124" as="sourcePoint" />
            <mxPoint x="235" y="1310" as="targetPoint" />
          </mxGeometry>
        </mxCell>
        <mxCell id="KiY_E6ATNSABtzJhrOcj-120" value="1" style="edgeLabel;html=1;align=center;verticalAlign=middle;resizable=0;points=[];" vertex="1" connectable="0" parent="KiY_E6ATNSABtzJhrOcj-119">
          <mxGeometry x="0.8502" y="3" relative="1" as="geometry">
            <mxPoint x="-13" y="-13" as="offset" />
          </mxGeometry>
        </mxCell>
        <mxCell id="KiY_E6ATNSABtzJhrOcj-121" value="*" style="edgeLabel;html=1;align=center;verticalAlign=middle;resizable=0;points=[];" vertex="1" connectable="0" parent="KiY_E6ATNSABtzJhrOcj-119">
          <mxGeometry x="-0.7229" y="3" relative="1" as="geometry">
            <mxPoint x="7" y="3" as="offset" />
          </mxGeometry>
        </mxCell>
        <mxCell id="KiY_E6ATNSABtzJhrOcj-122" value="contient" style="edgeLabel;html=1;align=center;verticalAlign=middle;resizable=0;points=[];" vertex="1" connectable="0" parent="KiY_E6ATNSABtzJhrOcj-119">
          <mxGeometry x="0.0197" y="1" relative="1" as="geometry">
            <mxPoint as="offset" />
          </mxGeometry>
        </mxCell>
        <mxCell id="KiY_E6ATNSABtzJhrOcj-123" value="Medicament" style="swimlane;fontStyle=0;childLayout=stackLayout;horizontal=1;startSize=26;fillColor=none;horizontalStack=0;resizeParent=1;resizeParentMax=0;resizeLast=0;collapsible=1;marginBottom=0;whiteSpace=wrap;html=1;" vertex="1" parent="1">
          <mxGeometry x="130" y="1400" width="160" height="78" as="geometry" />
        </mxCell>
        <mxCell id="KiY_E6ATNSABtzJhrOcj-124" value="nom:string" style="text;strokeColor=none;fillColor=none;align=left;verticalAlign=top;spacingLeft=4;spacingRight=4;overflow=hidden;rotatable=0;points=[[0,0.5],[1,0.5]];portConstraint=eastwest;whiteSpace=wrap;html=1;" vertex="1" parent="KiY_E6ATNSABtzJhrOcj-123">
          <mxGeometry y="26" width="160" height="26" as="geometry" />
        </mxCell>
        <mxCell id="KiY_E6ATNSABtzJhrOcj-128" value="famille:string" style="text;strokeColor=none;fillColor=none;align=left;verticalAlign=top;spacingLeft=4;spacingRight=4;overflow=hidden;rotatable=0;points=[[0,0.5],[1,0.5]];portConstraint=eastwest;whiteSpace=wrap;html=1;" vertex="1" parent="KiY_E6ATNSABtzJhrOcj-123">
          <mxGeometry y="52" width="160" height="26" as="geometry" />
        </mxCell>
        <mxCell id="KiY_E6ATNSABtzJhrOcj-129" style="rounded=0;orthogonalLoop=1;jettySize=auto;html=1;endArrow=none;endFill=0;" edge="1" parent="1" source="KiY_E6ATNSABtzJhrOcj-63" target="KiY_E6ATNSABtzJhrOcj-136">
          <mxGeometry relative="1" as="geometry">
            <mxPoint x="536" y="1124" as="sourcePoint" />
            <mxPoint x="493" y="1228" as="targetPoint" />
          </mxGeometry>
        </mxCell>
        <mxCell id="KiY_E6ATNSABtzJhrOcj-130" value="0..*" style="edgeLabel;html=1;align=center;verticalAlign=middle;resizable=0;points=[];" vertex="1" connectable="0" parent="KiY_E6ATNSABtzJhrOcj-129">
          <mxGeometry x="0.8502" y="3" relative="1" as="geometry">
            <mxPoint x="-10" y="-12" as="offset" />
          </mxGeometry>
        </mxCell>
        <mxCell id="KiY_E6ATNSABtzJhrOcj-131" value="1" style="edgeLabel;html=1;align=center;verticalAlign=middle;resizable=0;points=[];" vertex="1" connectable="0" parent="KiY_E6ATNSABtzJhrOcj-129">
          <mxGeometry x="-0.7229" y="3" relative="1" as="geometry">
            <mxPoint x="7" y="3" as="offset" />
          </mxGeometry>
        </mxCell>
        <mxCell id="KiY_E6ATNSABtzJhrOcj-132" value="comporte" style="edgeLabel;html=1;align=center;verticalAlign=middle;resizable=0;points=[];" vertex="1" connectable="0" parent="KiY_E6ATNSABtzJhrOcj-129">
          <mxGeometry x="0.0197" y="1" relative="1" as="geometry">
            <mxPoint as="offset" />
          </mxGeometry>
        </mxCell>
        <mxCell id="KiY_E6ATNSABtzJhrOcj-136" value="Examen" style="swimlane;fontStyle=0;childLayout=stackLayout;horizontal=1;startSize=26;fillColor=none;horizontalStack=0;resizeParent=1;resizeParentMax=0;resizeLast=0;collapsible=1;marginBottom=0;whiteSpace=wrap;html=1;" vertex="1" parent="1">
          <mxGeometry x="402.5" y="1254" width="160" height="104" as="geometry" />
        </mxCell>
        <mxCell id="KiY_E6ATNSABtzJhrOcj-137" value="nom:string" style="text;strokeColor=none;fillColor=none;align=left;verticalAlign=top;spacingLeft=4;spacingRight=4;overflow=hidden;rotatable=0;points=[[0,0.5],[1,0.5]];portConstraint=eastwest;whiteSpace=wrap;html=1;" vertex="1" parent="KiY_E6ATNSABtzJhrOcj-136">
          <mxGeometry y="26" width="160" height="26" as="geometry" />
        </mxCell>
        <mxCell id="KiY_E6ATNSABtzJhrOcj-144" value="resultat:string" style="text;strokeColor=none;fillColor=none;align=left;verticalAlign=top;spacingLeft=4;spacingRight=4;overflow=hidden;rotatable=0;points=[[0,0.5],[1,0.5]];portConstraint=eastwest;whiteSpace=wrap;html=1;" vertex="1" parent="KiY_E6ATNSABtzJhrOcj-136">
          <mxGeometry y="52" width="160" height="26" as="geometry" />
        </mxCell>
        <mxCell id="KiY_E6ATNSABtzJhrOcj-138" value="dateExamen:DateTime" style="text;strokeColor=none;fillColor=none;align=left;verticalAlign=top;spacingLeft=4;spacingRight=4;overflow=hidden;rotatable=0;points=[[0,0.5],[1,0.5]];portConstraint=eastwest;whiteSpace=wrap;html=1;" vertex="1" parent="KiY_E6ATNSABtzJhrOcj-136">
          <mxGeometry y="78" width="160" height="26" as="geometry" />
        </mxCell>
        <mxCell id="KiY_E6ATNSABtzJhrOcj-146" style="rounded=0;orthogonalLoop=1;jettySize=auto;html=1;endArrow=none;endFill=0;" edge="1" parent="1" source="KiY_E6ATNSABtzJhrOcj-123" target="KiY_E6ATNSABtzJhrOcj-123">
          <mxGeometry relative="1" as="geometry">
            <mxPoint x="400" y="1450" as="sourcePoint" />
            <mxPoint x="223" y="1410" as="targetPoint" />
            <Array as="points">
              <mxPoint x="420" y="1429" />
            </Array>
          </mxGeometry>
        </mxCell>
        <mxCell id="KiY_E6ATNSABtzJhrOcj-147" value="*" style="edgeLabel;html=1;align=center;verticalAlign=middle;resizable=0;points=[];" vertex="1" connectable="0" parent="KiY_E6ATNSABtzJhrOcj-146">
          <mxGeometry x="0.8502" y="3" relative="1" as="geometry">
            <mxPoint x="-13" y="-13" as="offset" />
          </mxGeometry>
        </mxCell>
        <mxCell id="KiY_E6ATNSABtzJhrOcj-149" value="est incompatible" style="edgeLabel;html=1;align=center;verticalAlign=middle;resizable=0;points=[];" vertex="1" connectable="0" parent="KiY_E6ATNSABtzJhrOcj-146">
          <mxGeometry x="0.0197" y="1" relative="1" as="geometry">
            <mxPoint as="offset" />
          </mxGeometry>
        </mxCell>
        <mxCell id="KiY_E6ATNSABtzJhrOcj-150" value="*" style="edgeLabel;html=1;align=center;verticalAlign=middle;resizable=0;points=[];" vertex="1" connectable="0" parent="KiY_E6ATNSABtzJhrOcj-146">
          <mxGeometry x="0.926" relative="1" as="geometry">
            <mxPoint as="offset" />
          </mxGeometry>
        </mxCell>
        <mxCell id="KiY_E6ATNSABtzJhrOcj-151" style="rounded=0;orthogonalLoop=1;jettySize=auto;html=1;endArrow=none;endFill=0;entryX=0.993;entryY=0.341;entryDx=0;entryDy=0;entryPerimeter=0;" edge="1" parent="1" source="KiY_E6ATNSABtzJhrOcj-99" target="KiY_E6ATNSABtzJhrOcj-128">
          <mxGeometry relative="1" as="geometry">
            <mxPoint x="227" y="1334" as="sourcePoint" />
            <mxPoint x="223" y="1410" as="targetPoint" />
          </mxGeometry>
        </mxCell>
        <mxCell id="KiY_E6ATNSABtzJhrOcj-152" value="*" style="edgeLabel;html=1;align=center;verticalAlign=middle;resizable=0;points=[];" vertex="1" connectable="0" parent="KiY_E6ATNSABtzJhrOcj-151">
          <mxGeometry x="0.8502" y="3" relative="1" as="geometry">
            <mxPoint x="-13" y="-13" as="offset" />
          </mxGeometry>
        </mxCell>
        <mxCell id="KiY_E6ATNSABtzJhrOcj-153" value="*" style="edgeLabel;html=1;align=center;verticalAlign=middle;resizable=0;points=[];" vertex="1" connectable="0" parent="KiY_E6ATNSABtzJhrOcj-151">
          <mxGeometry x="-0.7229" y="3" relative="1" as="geometry">
            <mxPoint x="7" y="3" as="offset" />
          </mxGeometry>
        </mxCell>
        <mxCell id="KiY_E6ATNSABtzJhrOcj-154" value="est incompatible" style="edgeLabel;html=1;align=center;verticalAlign=middle;resizable=0;points=[];" vertex="1" connectable="0" parent="KiY_E6ATNSABtzJhrOcj-151">
          <mxGeometry x="0.0197" y="1" relative="1" as="geometry">
            <mxPoint as="offset" />
          </mxGeometry>
        </mxCell>
      </root>
    </mxGraphModel>
  </diagram>
</mxfile>
